<svg width="136" height="50" viewBox="0 0 136 50" fill="none" xmlns="http://www.w3.org/2000/svg">
<g id="Frame 1">
<g id="text-group">
<path id="K" d="M22.07 38L14.99 28.7V38H9.86V16.94H14.99V26.18L22.01 16.94H28.04L19.88 27.26L28.34 38H22.07Z" fill="black"/>
<path id="Chat" d="M29.693 30.608C29.693 29.152 30.008 27.857 30.638 26.723C31.268 25.575 32.143 24.686 33.263 24.056C34.397 23.412 35.678 23.09 37.106 23.09C38.856 23.09 40.354 23.552 41.6 24.476C42.846 25.4 43.679 26.66 44.099 28.256H40.151C39.857 27.64 39.437 27.171 38.891 26.849C38.359 26.527 37.75 26.366 37.064 26.366C35.958 26.366 35.062 26.751 34.376 27.521C33.69 28.291 33.347 29.32 33.347 30.608C33.347 31.896 33.69 32.925 34.376 33.695C35.062 34.465 35.958 34.85 37.064 34.85C37.75 34.85 38.359 34.689 38.891 34.367C39.437 34.045 39.857 33.576 40.151 32.96H44.099C43.679 34.556 42.846 35.816 41.6 36.74C40.354 37.65 38.856 38.105 37.106 38.105C35.678 38.105 34.397 37.79 33.263 37.16C32.143 36.516 31.268 35.627 30.638 34.493C30.008 33.359 29.693 32.064 29.693 30.608ZM53.5011 26.156C54.8451 26.156 55.9231 26.604 56.7351 27.5C57.5471 28.382 57.9531 29.6 57.9531 31.154V38H54.3831V31.637C54.3831 30.853 54.1801 30.244 53.7741 29.81C53.3681 29.376 52.8221 29.159 52.1361 29.159C51.4501 29.159 50.9041 29.376 50.4981 29.81C50.0921 30.244 49.8891 30.853 49.8891 31.637V38H46.2981V22.46H49.8891V27.857C50.2531 27.339 50.7501 26.926 51.3801 26.618C52.0101 26.31 52.7171 26.156 53.5011 26.156ZM59.7345 32.12C59.7345 30.916 59.9585 29.859 60.4065 28.949C60.8685 28.039 61.4915 27.339 62.2755 26.849C63.0595 26.359 63.9345 26.114 64.9005 26.114C65.7265 26.114 66.4475 26.282 67.0635 26.618C67.6935 26.954 68.1765 27.395 68.5125 27.941V26.282H72.1035V38H68.5125V36.341C68.1625 36.887 67.6725 37.328 67.0425 37.664C66.4265 38 65.7055 38.168 64.8795 38.168C63.9275 38.168 63.0595 37.923 62.2755 37.433C61.4915 36.929 60.8685 36.222 60.4065 35.312C59.9585 34.388 59.7345 33.324 59.7345 32.12ZM68.5125 32.141C68.5125 31.245 68.2605 30.538 67.7565 30.02C67.2665 29.502 66.6645 29.243 65.9505 29.243C65.2365 29.243 64.6275 29.502 64.1235 30.02C63.6335 30.524 63.3885 31.224 63.3885 32.12C63.3885 33.016 63.6335 33.73 64.1235 34.262C64.6275 34.78 65.2365 35.039 65.9505 35.039C66.6645 35.039 67.2665 34.78 67.7565 34.262C68.2605 33.744 68.5125 33.037 68.5125 32.141ZM81.2324 34.955V38H79.4054C78.1034 38 77.0884 37.685 76.3604 37.055C75.6324 36.411 75.2684 35.368 75.2684 33.926V29.264H73.8404V26.282H75.2684V23.426H78.8594V26.282H81.2114V29.264H78.8594V33.968C78.8594 34.318 78.9434 34.57 79.1114 34.724C79.2794 34.878 79.5594 34.955 79.9514 34.955H81.2324Z" fill="black"/>
</g>
<g id="triangle">
<path id="triangle_2" d="M103.851 28.9128C104.458 29.3128 104.449 30.2068 103.834 30.5942L87.0712 41.1462C86.4014 41.5678 85.5304 41.0811 85.5385 40.2896L85.7594 18.8427C85.7675 18.0513 86.6483 17.5825 87.3094 18.0179L103.851 28.9128Z" fill="#CF7BD7" fill-opacity="0.66"/>
</g>
</g>
</svg>
